<?xml version="1.0" encoding="UTF-8" standalone="no"?>
<!-- Uploaded to: SVG Repo, www.svgrepo.com, Generator: SVG Repo Mixer Tools -->

<svg
   fill="#000000"
   width="706.48901"
   height="750.48499"
   viewBox="0 0 452.15297 480.31039"
   version="1.1"
   id="svg15"
   sodipodi:docname="grid2.svg"
   inkscape:version="1.3 (0e150ed6c4, 2023-07-21)"
   xmlns:inkscape="http://www.inkscape.org/namespaces/inkscape"
   xmlns:sodipodi="http://sodipodi.sourceforge.net/DTD/sodipodi-0.dtd"
   xmlns:xlink="http://www.w3.org/1999/xlink"
   xmlns="http://www.w3.org/2000/svg"
   xmlns:svg="http://www.w3.org/2000/svg">
  <defs
     id="defs15">
    <linearGradient
       id="linearGradient20"
       inkscape:collect="always">
      <stop
         style="stop-color:#1bc900;stop-opacity:1;"
         offset="0"
         id="stop20" />
      <stop
         style="stop-color:#fdc056;stop-opacity:1;"
         offset="1"
         id="stop21" />
    </linearGradient>
    <linearGradient
       inkscape:collect="always"
       xlink:href="#linearGradient20"
       id="linearGradient21"
       x1="29.9232"
       y1="256.00005"
       x2="482.0762"
       y2="256.00005"
       gradientUnits="userSpaceOnUse" />
  </defs>
  <sodipodi:namedview
     id="namedview15"
     pagecolor="#ffffff"
     bordercolor="#000000"
     borderopacity="0.25"
     inkscape:showpageshadow="2"
     inkscape:pageopacity="0.0"
     inkscape:pagecheckerboard="0"
     inkscape:deskcolor="#d1d1d1"
     inkscape:zoom="1.01625"
     inkscape:cx="400.492"
     inkscape:cy="400"
     inkscape:window-width="1920"
     inkscape:window-height="1009"
     inkscape:window-x="-8"
     inkscape:window-y="-8"
     inkscape:window-maximized="1"
     inkscape:current-layer="svg15" />
  <g
     id="Exercise_application_calculate"
     style="fill:url(#linearGradient21);fill-opacity:1"
     transform="translate(-29.923201,-15.8447)">
    <path
       d="M 420.0006,327.7105 H 295.9069 a 6,6 0 0 0 0,12 h 124.0937 a 6,6 0 0 0 0,-12 z"
       id="path1"
       style="fill:url(#linearGradient21);fill-opacity:1" />
    <path
       d="M 420.0006,352.16 H 295.9069 a 6,6 0 0 0 0,12 h 124.0937 a 6,6 0 0 0 0,-12 z"
       id="path2"
       style="fill:url(#linearGradient21);fill-opacity:1" />
    <path
       d="m 298.4581,254.7823 a 4.75,4.75 0 0 0 -4.75,4.75 v 32.9385 a 4.75,4.75 0 0 0 9.5,0 v -9.63 h 5.56 l 10.4473,12.0312 a 4.75,4.75 0 1 0 7.1728,-6.2285 l -9.26,-10.6645 8.51,-10.5474 a 4.7501214,4.7501214 0 1 0 -7.3935,-5.9658 l -9.5816,11.875 h -5.4551 v -13.8085 a 4.75,4.75 0 0 0 -4.7499,-4.75 z"
       id="path3"
       style="fill:url(#linearGradient21);fill-opacity:1" />
    <path
       d="m 412.26,259.5323 v 32.9385 a 4.75,4.75 0 1 0 9.5,0 v -32.9385 a 4.75,4.75 0 0 0 -9.5,0 z"
       id="path4"
       style="fill:url(#linearGradient21);fill-opacity:1" />
    <path
       d="m 348.298,276.0191 h 7.499 a 4.75,4.75 0 0 0 0,-9.5 h -7.499 a 15.3509,15.3509 0 1 0 0,30.7017 h 7.499 a 4.75,4.75 0 0 0 0,-9.5 h -7.499 a 5.8509,5.8509 0 1 1 0,-11.7017 z"
       id="path5"
       style="fill:url(#linearGradient21);fill-opacity:1" />
    <path
       d="m 396.3561,280.9937 a 15.5491,15.5491 0 0 0 -31.0982,0 v 0.6782 a 15.5409,15.5409 0 0 0 25.44,11.9887 12.5474,12.5474 0 0 0 8.7563,3.56 h 1.5855 a 4.75,4.75 0 0 0 0,-9.5 h -1.5855 a 3.1013,3.1013 0 0 1 -3.0976,-3.0982 v -3.6289 z m -15.5493,6.7271 a 6.0556,6.0556 0 0 1 -6.0489,-6.0489 v -0.6782 a 6.0491,6.0491 0 0 1 12.0982,0 v 0.6782 a 6.056,6.056 0 0 1 -6.0493,6.0489 z"
       id="path6"
       style="fill:url(#linearGradient21);fill-opacity:1" />
    <path
       d="m 411.5577,144.8648 a 6.0000463,6.0000463 0 1 0 11.5733,-3.1719 67.2464,67.2464 0 0 0 -5.5093,-13.8418 6.0001618,6.0001618 0 0 0 -10.5889,5.6465 55.1861,55.1861 0 0 1 4.5249,11.3672 z"
       id="path7"
       style="fill:url(#linearGradient21);fill-opacity:1" />
    <path
       d="m 358.045,227.044 a 67.7459,67.7459 0 0 0 67.2828,-62.293 6.0002263,6.0002263 0 1 0 -11.9659,-0.91 55.4827,55.4827 0 1 1 -17.4228,-44.7984 6,6 0 1 0 8.1982,-8.7627 67.48,67.48 0 1 0 -46.0923,116.7641 z"
       id="path8"
       style="fill:url(#linearGradient21);fill-opacity:1" />
    <path
       d="m 373.91,136.61 -1.04,2.0466 a 3.7313,3.7313 0 0 1 -6.7439,-0.18 79.3942,79.3942 0 0 0 -12.0491,-19.1017 4.7609,4.7609 0 0 0 -8.4043,3.037 c -0.0879,5.834 -1.4209,12.5087 -5.8194,17.7448 -13.6015,16.1925 -12.2751,31.778 -12.2751,31.778 0,14.0869 13.323,25.5065 29.7581,25.5065 11.9414,0 22.2343,-6.0315 26.9731,-14.7317 l 0.003,0.004 a 42.648,42.648 0 0 0 2.7823,-29.4131 89.8119,89.8119 0 0 0 -6.54,-16.72 3.7332,3.7332 0 0 0 -6.6446,0.03 z m -15.8589,54.502 a 14.4494,14.4494 0 0 1 -14.4494,-14.4495 c 0,-0.2791 0.01,-0.5557 0.0254,-0.831 0.3362,-7.8061 5.7217,-14.8315 9.8144,-19.08 a 6.3954,6.3954 0 0 1 9.2193,0 c 4.093,4.25 9.48,11.2765 9.8147,19.0831 0.0153,0.2744 0.0251,0.55 0.0251,0.8284 a 14.4494,14.4494 0 0 1 -14.4495,14.449 z"
       id="path9"
       style="fill:url(#linearGradient21);fill-opacity:1" />
    <path
       d="m 146.7272,312.0144 a 5.1,5.1 0 0 0 -5.1,5.1 v 0.9114 a 1.4248,1.4248 0 0 1 -1.4229,1.4229 h -7.5449 a 5.1,5.1 0 1 0 0,10.2 h 7.5449 a 11.6361,11.6361 0 0 0 11.6228,-11.6229 v -0.9114 a 5.1,5.1 0 0 0 -5.0999,-5.1 z"
       id="path10"
       style="fill:url(#linearGradient21);fill-opacity:1" />
    <path
       d="m 177.7494,319.4487 h -7.5454 a 1.4243,1.4243 0 0 1 -1.4224,-1.4229 v -0.9114 a 5.1,5.1 0 1 0 -10.2,0 v 0.9114 a 11.6355,11.6355 0 0 0 11.6223,11.6229 h 7.5454 a 5.1,5.1 0 1 0 0,-10.2 z"
       id="path11"
       style="fill:url(#linearGradient21);fill-opacity:1" />
    <path
       d="m 146.7272,339.5659 h -14.0679 a 5.1,5.1 0 1 0 0,10.2 h 14.0679 a 5.1,5.1 0 0 0 0,-10.2 z"
       id="path12"
       style="fill:url(#linearGradient21);fill-opacity:1" />
    <path
       d="m 177.7494,339.5659 h -14.0676 a 5.1,5.1 0 1 0 0,10.2 h 14.0676 a 5.1,5.1 0 1 0 0,-10.2 z"
       id="path13"
       style="fill:url(#linearGradient21);fill-opacity:1" />
    <path
       d="m 166.1854,251.649 a 2.9193,2.9193 0 0 0 -2.7754,-3.8156 h -16.4087 a 2.9193,2.9193 0 0 0 -2.7753,3.8157 c 1.0664,3.3431 3.8278,7.6719 10.98,7.6719 7.1522,0 9.9133,-4.3289 10.9794,-7.672 z"
       id="path14"
       style="fill:url(#linearGradient21);fill-opacity:1" />
    <path
       d="m 450.8439,15.8447 h -185.78 a 31.2326,31.2326 0 0 0 -31.2324,31.2326 v 146.099 h -9.4971 a 13.2975,13.2975 0 0 0 -12.8506,9.9959 h -5.875 v -9.4566 a 4.8289,4.8289 0 0 0 -4.8288,-4.8288 h -4.993 a 4.8288,4.8288 0 0 0 -4.8288,4.8288 v 31.1532 a 4.8288,4.8288 0 0 0 4.8288,4.8288 h 4.993 a 4.829,4.829 0 0 0 4.8288,-4.8288 v -9.4566 h 4.563 a 13.32,13.32 0 0 0 9.4429,9.9946 l 4.8974,1.3423 a 1.2761,1.2761 0 0 1 0.8946,1.55 l -6.7178,25.6533 a 1.26,1.26 0 0 1 -0.8545,0.89 94.3535,94.3535 0 0 0 -21.6309,9.9952 22.2442,22.2442 0 0 1 -16.5292,2.666 c -0.3809,-0.0864 -0.7334,-0.1729 -1.0694,-0.2583 6.1983,-5.5454 9.5615,-13.8169 9.5615,-23.7442 0,-17.3364 -14.8144,-31.44 -33.0234,-31.44 -18.209,0 -33.0225,14.104 -33.0225,31.44 0,9.8326 3.3008,18.0415 9.3858,23.5855 -0.5537,0.14 -1.1319,0.2842 -1.7754,0.43 a 22.0693,22.0693 0 0 1 -16.39,-2.6284 94.4657,94.4657 0 0 0 -21.72,-10.0469 1.2558,1.2558 0 0 1 -0.8486,-0.89 l -6.7178,-25.6518 a 1.2777,1.2777 0 0 1 0.8955,-1.5508 l 4.8965,-1.3418 a 13.32,13.32 0 0 0 9.4429,-9.9946 h 5.2075 v 9.4566 a 4.8288,4.8288 0 0 0 4.8288,4.8288 h 4.993 a 4.8288,4.8288 0 0 0 4.8288,-4.8288 v -31.1533 a 4.8287,4.8287 0 0 0 -4.8288,-4.8288 h -4.993 a 4.8288,4.8288 0 0 0 -4.8288,4.8288 v 9.4566 H 97.9767 A 13.2941,13.2941 0 0 0 85.1281,193.1763 H 64.4415 a 13.2073,13.2073 0 0 0 -12.8628,9.9959 h -7.0048 v -9.4566 a 4.8288,4.8288 0 0 0 -4.8289,-4.8288 h -4.9929 a 4.8288,4.8288 0 0 0 -4.8289,4.8288 v 31.1532 a 4.8289,4.8289 0 0 0 4.8289,4.8288 h 4.9929 a 4.8289,4.8289 0 0 0 4.8289,-4.8288 v -9.4566 h 5.2275 a 298.3037,298.3037 0 0 0 -1.7974,52.1469 30.5167,30.5167 0 0 0 15.5274,24.7828 l 39.9336,22.6611 a 10.7111,10.7111 0 0 1 5.3925,8.4453 l 1.4747,17.9888 a 46.1351,46.1351 0 0 1 -1.9307,17.53 l -36.4229,117.3 a 15.3405,15.3405 0 0 0 14.65,19.8881 h 29.7188 A 19.1711,19.1711 0 0 0 135.0509,480.92 l 19.8008,-95.8477 19.5732,95.8077 a 19.1659,19.1659 0 0 0 18.7119,15.2754 h 29.6954 a 15.3405,15.3405 0 0 0 14.65,-19.8881 l -36.4228,-117.3 a 46.1331,46.1331 0 0 1 -1.9307,-17.53 l 1.4766,-17.99 a 10.7067,10.7067 0 0 1 5.3906,-8.4443 l 27.835,-15.7951 v 115.1675 a 31.2325,31.2325 0 0 0 31.2324,31.2326 h 185.78 a 31.2326,31.2326 0 0 0 31.2329,-31.2326 V 47.0773 A 31.2327,31.2327 0 0 0 450.8439,15.8447 Z m -74.4732,15.6168 h 11.29 a 6,6 0 0 1 0,12 h -11.29 a 6,6 0 0 1 0,-12 z m -48.124,0 h 28.2256 a 6,6 0 0 1 0,12 h -28.2256 a 6,6 0 0 1 0,-12 z m -78.7681,235.3877 a 18.5632,18.5632 0 0 1 -9.47,15.0561 l -39.9355,22.6612 a 22.6967,22.6967 0 0 0 -11.4278,17.9008 l -1.4753,17.9883 a 58.0591,58.0591 0 0 0 2.4288,22.07 l 36.4228,117.3 a 3.3392,3.3392 0 0 1 -3.1894,4.33 h -29.6954 a 7.1222,7.1222 0 0 1 -6.9541,-5.6777 L 166.4923,382.1 a 11.7809,11.7809 0 0 0 -11.63,-9.5054 h -0.0136 a 11.78,11.78 0 0 0 -11.6377,9.4805 l -19.912,96.4171 a 7.1261,7.1261 0 0 1 -6.9512,5.6631 H 86.629 a 3.3392,3.3392 0 0 1 -3.1894,-4.33 l 36.4228,-117.3 a 58.0556,58.0556 0 0 0 2.4287,-22.07 l -1.4746,-17.9888 a 22.7,22.7 0 0 0 -11.43,-17.9008 L 69.4532,281.9048 a 18.5608,18.5608 0 0 1 -9.4707,-15.0556 292.0531,292.0531 0 0 1 3.2,-60.5928 1.2716,1.2716 0 0 1 1.2588,-1.08 h 20.6868 a 1.2762,1.2762 0 0 1 1.249,1.0264 l 1.2109,6.1572 a 1.2785,1.2785 0 0 1 -0.9131,1.4737 l -4.8955,1.3418 a 13.3205,13.3205 0 0 0 -9.334,16.163 l 6.7178,25.6529 a 13.1159,13.1159 0 0 0 1.0859,2.7477 19.7381,19.7381 0 0 0 -1.309,7.8779 5.0954,5.0954 0 0 0 5.09,4.947 h 0.1528 a 5.0976,5.0976 0 0 0 4.9471,-5.253 c -0.0071,-0.232 0.0051,-0.4473 0.0115,-0.6677 a 85.9031,85.9031 0 0 1 17.9807,8.5072 34.0059,34.0059 0 0 0 25.2568,4.07 c 0.9229,-0.209 4.5684,-1.1353 5.7256,-1.3467 a 9.8993,9.8993 0 0 0 3.4912,-18.1226 c -6.1787,-3.9487 -7.4756,-11.0161 -7.4756,-16.25 0,-10.72 9.4307,-19.44 21.0225,-19.44 11.5918,0 21.0234,8.7207 21.0234,19.44 0,5.2334 -1.2968,12.3008 -7.4736,16.2486 a 9.9219,9.9219 0 0 0 -4.6357,8.3828 v 0.1333 a 9.9539,9.9539 0 0 0 7.9609,9.7056 c 0.8545,0.1733 4.0332,1.0146 4.9941,1.2334 a 34.1813,34.1813 0 0 0 25.4024,-4.1 84.44,84.44 0 0 1 18.5029,-8.6529 c 0.0132,0.28 0.0259,0.56 0.0171,0.8589 a 5.0891,5.0891 0 0 0 4.937,5.2529 h 0.1631 a 5.0954,5.0954 0 0 0 5.09,-4.947 19.5933,19.5933 0 0 0 -1.5869,-8.5479 13.0344,13.0344 0 0 0 0.7608,-2.0777 l 6.7168,-25.6519 a 13.3178,13.3178 0 0 0 -9.3321,-16.164 l -4.8964,-1.3418 a 1.277,1.277 0 0 1 -0.9122,-1.4737 l 1.21,-6.1567 a 1.2764,1.2764 0 0 1 1.25,-1.0269 h 20.6865 a 1.2706,1.2706 0 0 1 1.2578,1.08 v 0.001 a 291.818,291.818 0 0 1 3.2,60.592 z m 216.21,143.1364 a 17.95,17.95 0 0 1 -17.95,17.95 H 268.17 a 17.95,17.95 0 0 1 -17.95,-17.95 V 289.3988 a 30.4045,30.4045 0 0 0 11.2378,-21.84 298.3253,298.3253 0 0 0 -1.7969,-52.1469 h 5.8716 v 9.4566 a 4.8288,4.8288 0 0 0 4.8288,4.8288 h 4.9929 a 4.8289,4.8289 0 0 0 4.8289,-4.8288 v -31.1529 a 4.8288,4.8288 0 0 0 -4.8289,-4.8288 h -4.9929 a 4.8287,4.8287 0 0 0 -4.8288,4.8288 v 9.4566 h -7.6495 a 13.1913,13.1913 0 0 0 -7.663,-8.9361 V 76.16 a 17.95,17.95 0 0 1 17.95,-17.95 h 179.5684 a 17.95,17.95 0 0 1 17.95,17.95 z"
       id="path15"
       style="fill:url(#linearGradient21);fill-opacity:1" />
  </g>
</svg>
