<?xml version="1.0" encoding="UTF-8" standalone="no"?>
<!-- Uploaded to: SVG Repo, www.svgrepo.com, Generator: SVG Repo Mixer Tools -->

<svg
   width="706.48901"
   height="750.48499"
   viewBox="-48.65 0 448.24968 476.16396"
   version="1.1"
   id="svg11"
   sodipodi:docname="grid1.svg"
   inkscape:version="1.3 (0e150ed6c4, 2023-07-21)"
   xmlns:inkscape="http://www.inkscape.org/namespaces/inkscape"
   xmlns:sodipodi="http://sodipodi.sourceforge.net/DTD/sodipodi-0.dtd"
   xmlns:xlink="http://www.w3.org/1999/xlink"
   xmlns="http://www.w3.org/2000/svg"
   xmlns:svg="http://www.w3.org/2000/svg">
  <sodipodi:namedview
     id="namedview11"
     pagecolor="#ffffff"
     bordercolor="#000000"
     borderopacity="0.25"
     inkscape:showpageshadow="2"
     inkscape:pageopacity="0.0"
     inkscape:pagecheckerboard="0"
     inkscape:deskcolor="#d1d1d1"
     inkscape:zoom="1.01625"
     inkscape:cx="396.55597"
     inkscape:cy="384.25584"
     inkscape:window-width="1920"
     inkscape:window-height="1009"
     inkscape:window-x="-8"
     inkscape:window-y="-8"
     inkscape:window-maximized="1"
     inkscape:current-layer="svg11" />
  <defs
     id="defs1">
    <linearGradient
       id="linearGradient1"
       inkscape:collect="always">
      <stop
         style="stop-color:#1bc900;stop-opacity:1;"
         offset="0"
         id="stop1" />
      <stop
         style="stop-color:#fdc056;stop-opacity:1;"
         offset="1"
         id="stop2" />
    </linearGradient>
    <style
       id="style1">.cls-1{fill:#173156;}</style>
    <linearGradient
       inkscape:collect="always"
       xlink:href="#linearGradient1"
       id="linearGradient2"
       x1="0"
       y1="253.79312"
       x2="410.28005"
       y2="253.79312"
       gradientUnits="userSpaceOnUse" />
  </defs>
  <title
     id="title1" />
  <g
     data-name="Capa 2"
     id="Capa_2"
     style="fill:url(#linearGradient2);fill-opacity:1;fill-rule:nonzero"
     transform="matrix(0.96347881,0,0,0.93603859,-22.173242,0.52184331)">
    <g
       id="Outline"
       style="fill:url(#linearGradient2);fill-opacity:1;fill-rule:nonzero">
      <g
         id="SaladBowl"
         style="fill:url(#linearGradient2);fill-opacity:1;fill-rule:nonzero">
        <path
           class="cls-1"
           d="m 0,302.44 c 0,113.11 92,205.14 205.14,205.14 a 205,205 0 0 0 205.14,-205.14 8.51,8.51 0 0 0 -8.5,-8.5 H 8.5 a 8.51,8.51 0 0 0 -8.5,8.5 z m 393.09,8.5 a 188.49,188.49 0 0 1 -5.57,37.8 H 22.78 a 186.85,186.85 0 0 1 -5.59,-37.8 z m -368.4,44.8 H 385.6 A 188.14,188.14 0 0 1 205.14,490.58 C 119.9,490.58 47.73,433.6 24.69,355.74 Z"
           id="path1"
           style="fill:url(#linearGradient2);fill-opacity:1;fill-rule:nonzero" />
        <path
           class="cls-1"
           d="m 264.28,452.88 a 137.9,137.9 0 0 0 49.87,-36.62 3.5028917,3.5028917 0 0 1 5.31,4.57 145.2,145.2 0 0 1 -52.46,38.49 3.55,3.55 0 0 1 -1.38,0.28 3.5,3.5 0 0 1 -1.38,-6.72 z"
           id="path2"
           style="fill:url(#linearGradient2);fill-opacity:1;fill-rule:nonzero" />
        <path
           class="cls-1"
           d="m 378.42,110.16 c 16.45,-17.37 12.24,-43 12.05,-44 a 8.5,8.5 0 0 0 -13.91,-5 l -37.32,32.01 11.31,-56.08 a 8.5,8.5 0 0 0 -11.42,-9.6 c -1.12,0.43 -27.63,11 -35,36.29 -3.38,11.54 -2.22,23.94 3.42,37 a 48.22,48.22 0 0 0 -21.77,1.59 c -12.27,4 -21.67,13.24 -27.93,27.43 A 114.6,114.6 0 0 0 253,143.45 c 0,0.1 -0.06,0.21 -0.09,0.31 -9.35,31.94 -14.73,85.5 -13.71,113.66 a 24.5,24.5 0 0 0 14.68,21.67 24.76,24.76 0 0 0 10,2.13 24.51,24.51 0 0 0 15.89,-5.87 c 12.91,-10.94 30.63,-29.33 46.26,-48 12.11,-14.48 22.06,-28 28.77,-39.1 v 0 a 112.55,112.55 0 0 0 6.7,-12.6 c 6.27,-14.18 6.76,-27.34 1.46,-39.11 a 45.66,45.66 0 0 0 -9.12,-13.16 c 10.09,-2.2 18.31,-6.6 24.58,-13.22 z m -56.62,13 v 0 l 0.26,0.13 0.3,0.15 0.27,0.13 h 0.08 l 0.19,0.07 0.34,0.13 0.18,0.07 c 0.34,0.11 18,6.06 24.09,19.75 3.24,7.27 2.74,15.51 -1.54,25.19 a 84.88,84.88 0 0 1 -4.15,8 l -14.15,-7.55 a 3.5,3.5 0 1 0 -3.3,6.17 l 13.81,7.37 a 332.63,332.63 0 0 1 -24.34,32.62 l -27.21,-12.53 a 3.5012319,3.5012319 0 1 0 -2.93,6.36 L 309.16,221 c -14,16.37 -29.18,31.94 -40.36,41.41 a 7.66,7.66 0 0 1 -12.62,-5.57 c -0.93,-25.59 3.67,-73.13 11.81,-103.84 l 27.15,12.19 a 3.45,3.45 0 0 0 1.43,0.31 3.5,3.5 0 0 0 1.44,-6.69 L 269.93,146.2 a 90.89,90.89 0 0 1 3.45,-9.46 c 4.28,-9.68 10,-15.6 17.58,-18.1 14.3,-4.77 30.67,4.36 30.84,4.47 z m 8.08,-69.51 -7.7,38.14 C 319,83.37 318.39,75.65 320.39,68.7 a 34.48,34.48 0 0 1 9.49,-15.1 z m 42.54,33.48 A 27.91,27.91 0 0 1 366,98.55 q -6,6.33 -16.73,8.41 z"
           id="path3"
           style="fill:url(#linearGradient2);fill-opacity:1;fill-rule:nonzero" />
        <path
           class="cls-1"
           d="M 153.92,151.61 C 141.36,120.61 112.86,100.2 83.81,100.2 H 83 C 82.91,99.96 82.81,99.71 82.71,99.47 77,85.5 59.76,79.26 44.21,85.56 a 32.19,32.19 0 0 0 -16.66,14.92 25.87,25.87 0 0 0 -1.27,21.85 24.85,24.85 0 0 0 5,7.79 C 18.79,150.63 17,178.29 27,203.05 c 12.57,31 40.68,51.37 69.88,51.42 4.54,7.47 13.07,11.8 22.29,11.8 a 30.25,30.25 0 0 0 11.4,-2.25 c 14.28,-5.78 21.65,-21 16.43,-33.84 -0.15,-0.35 -0.3,-0.7 -0.46,-1.05 15.32,-20.87 18.32,-50.53 7.38,-77.52 z m -24.25,71.32 a 8.48,8.48 0 0 0 0.23,11.66 6.08,6.08 0 0 1 1.32,2 c 1.67,4.11 -1.56,9.47 -7,11.7 -5.44,2.23 -11.55,0.63 -13.22,-3.49 a 7.07,7.07 0 0 1 -0.27,-0.95 8.49,8.49 0 0 0 -9.15,-6.59 c -24,2.43 -48.13,-14.26 -58.79,-40.57 -9,-22.16 -6.28,-46.92 6.89,-63.07 a 8.5,8.5 0 0 0 -3,-13.08 8.81,8.81 0 0 1 -4.6,-4.58 9.32,9.32 0 0 1 0.63,-7.67 15.17,15.17 0 0 1 7.94,-7 c 6.74,-2.74 14.22,-0.66 16.33,4.53 a 8.08,8.08 0 0 1 0.55,3.22 8.49,8.49 0 0 0 9.76,8.62 44.08,44.08 0 0 1 6.68,-0.5 c 22.22,0 44.29,16.24 54.25,40.8 9.4,23.36 6.06,48.85 -8.55,64.97 z"
           id="path4"
           style="fill:url(#linearGradient2);fill-opacity:1;fill-rule:nonzero" />
        <path
           class="cls-1"
           d="m 119,211.83 a 3.41,3.41 0 0 1 -1.54,0.36 3.5,3.5 0 0 1 -1.53,-6.64 19.93,19.93 0 0 0 9.07,-26.65 3.5,3.5 0 0 1 6.29,-3.07 26.91,26.91 0 0 1 -12.37,36 z"
           id="path5"
           style="fill:url(#linearGradient2);fill-opacity:1;fill-rule:nonzero" />
        <path
           class="cls-1"
           d="m 197.13,264.73 a 16.15,16.15 0 1 0 16.14,-16.14 16.17,16.17 0 0 0 -16.14,16.14 z m 7,0 a 9.15,9.15 0 1 1 9.14,9.15 9.15,9.15 0 0 1 -9.14,-9.15 z"
           id="path6"
           style="fill:url(#linearGradient2);fill-opacity:1;fill-rule:nonzero" />
        <path
           class="cls-1"
           d="M 131.88,59 A 18.86,18.86 0 1 0 113,77.86 18.88,18.88 0 0 0 131.88,59 Z m -7,0 A 11.86,11.86 0 1 1 113,47.15 11.87,11.87 0 0 1 124.88,59 Z"
           id="path7"
           style="fill:url(#linearGradient2);fill-opacity:1;fill-rule:nonzero" />
        <path
           class="cls-1"
           d="M 404.31,215.06 A 20.34,20.34 0 1 0 384,235.39 20.36,20.36 0 0 0 404.31,215.06 Z m -7,0 A 13.34,13.34 0 1 1 384,201.72 a 13.35,13.35 0 0 1 13.31,13.34 z"
           id="path8"
           style="fill:url(#linearGradient2);fill-opacity:1;fill-rule:nonzero" />
        <path
           class="cls-1"
           d="m 25.46,257.78 a 11.33,11.33 0 1 0 11.33,-11.32 11.34,11.34 0 0 0 -11.33,11.32 z m 7,0 a 4.33,4.33 0 1 1 4.33,4.33 4.33,4.33 0 0 1 -4.33,-4.33 z"
           id="path9"
           style="fill:url(#linearGradient2);fill-opacity:1;fill-rule:nonzero" />
        <path
           class="cls-1"
           d="M 283.38,32.8 A 11.33,11.33 0 1 0 272.06,44.13 11.34,11.34 0 0 0 283.38,32.8 Z m -7,0 a 4.33,4.33 0 1 1 -4.32,-4.33 4.33,4.33 0 0 1 4.32,4.33 z"
           id="path10"
           style="fill:url(#linearGradient2);fill-opacity:1;fill-rule:nonzero" />
        <path
           class="cls-1"
           d="M 215.62,156.21 C 231,135.87 247.79,104.62 240,71.32 233.54,43.48 211.13,19.79 173.42,0.9 a 8.51,8.51 0 0 0 -11.5,4 c -11,23.4 -20.7,46.53 -18,72.18 3.06,29.38 22.28,56.38 58.76,82.55 a 8.38,8.38 0 0 0 2.27,1.15 c -1.22,18.58 -4.89,34.48 -10.75,46.38 a 3.5,3.5 0 0 0 1.59,4.69 3.59,3.59 0 0 0 1.55,0.36 3.51,3.51 0 0 0 3.14,-1.95 c 6.39,-13 10.34,-30.23 11.55,-50.27 a 8.38,8.38 0 0 0 2.32,-2.06 c 0.42,-0.54 0.86,-1.11 1.3,-1.7 z m -3.74,-24.92 C 210.31,107 205.15,83 197.49,65.55 a 3.5,3.5 0 1 0 -6.41,2.81 c 8.26,18.84 13.49,45.66 14.22,72 C 177.71,119 163.13,97.68 160.8,75.3 c -1.93,-18.58 4.49,-36.74 12.77,-55.11 28.27,15.67 45.05,34.14 49.9,55 4.7,20.14 -2.25,40.05 -11.59,56.1 z"
           id="path11"
           style="fill:url(#linearGradient2);fill-opacity:1;fill-rule:nonzero" />
      </g>
    </g>
  </g>
</svg>
