<?xml version="1.0" encoding="UTF-8" standalone="no"?>
<!-- Uploaded to: SVG Repo, www.svgrepo.com, Generator: SVG Repo Mixer Tools -->

<svg
   fill="#000000"
   width="706.48901"
   height="750.48499"
   viewBox="0 0 28.259561 30.0194"
   style="clip-rule:evenodd;fill-rule:evenodd;stroke-linejoin:round;stroke-miterlimit:2"
   version="1.1"
   xml:space="preserve"
   id="svg2"
   sodipodi:docname="grid3.svg"
   inkscape:version="1.3 (0e150ed6c4, 2023-07-21)"
   xmlns:inkscape="http://www.inkscape.org/namespaces/inkscape"
   xmlns:sodipodi="http://sodipodi.sourceforge.net/DTD/sodipodi-0.dtd"
   xmlns:xlink="http://www.w3.org/1999/xlink"
   xmlns="http://www.w3.org/2000/svg"
   xmlns:svg="http://www.w3.org/2000/svg"><defs
     id="defs2"><linearGradient
       id="linearGradient6"
       inkscape:collect="always"><stop
         style="stop-color:#1bc900;stop-opacity:1;"
         offset="0"
         id="stop6" /><stop
         style="stop-color:#fdc056;stop-opacity:1;"
         offset="1"
         id="stop7" /></linearGradient><linearGradient
       inkscape:collect="always"
       xlink:href="#linearGradient6"
       id="linearGradient7"
       x1="-6.4849853e-08"
       y1="12.011"
       x2="27.932"
       y2="12.011"
       gradientUnits="userSpaceOnUse" /></defs><sodipodi:namedview
     id="namedview2"
     pagecolor="#ffffff"
     bordercolor="#000000"
     borderopacity="0.25"
     inkscape:showpageshadow="2"
     inkscape:pageopacity="0.0"
     inkscape:pagecheckerboard="0"
     inkscape:deskcolor="#d1d1d1"
     inkscape:zoom="1.01625"
     inkscape:cx="401.47601"
     inkscape:cy="400"
     inkscape:window-width="1920"
     inkscape:window-height="1009"
     inkscape:window-x="-8"
     inkscape:window-y="-8"
     inkscape:window-maximized="1"
     inkscape:current-layer="svg2" /><g
     id="g1"
     transform="matrix(1.008455,0,0,1.0229392,0.04569803,2.7231773)"
     style="fill:url(#linearGradient7);fill-opacity:1"><path
       d="M 2.2019999,2.2849998 C 0.79299994,3.7349998 -6.4849853e-8,5.6999998 -6.4849853e-8,7.7489998 -6.4849853e-8,9.7989998 0.79299994,11.764 2.2019999,13.213 L 11.827,23.112 c 0.568,0.584 1.339,0.91 2.143,0.91 0.803,0 1.575,-0.326 2.143,-0.91 1.743,-1.793 9.617,-9.907 9.617,-9.907 1.409,-1.449 2.202,-3.4140002 2.202,-5.4640002 0,-2.05 -0.793,-4.014 -2.202,-5.464 0,0 0,0 0,0 C 24.311,0.81799981 22.385,-1.8501281e-7 20.378,-1.8501281e-7 18.371,-1.8501281e-7 16.446,0.81799981 15.027,2.2769998 c 0,0 -1.065,1.095 -1.065,1.095 0,0 -1.057,-1.087 -1.057,-1.087 C 11.486,0.82599981 9.5609999,0.00799981 7.5539999,0.00799981 c -2.007,0 -3.933,0.818 -5.352,2.27699999 m 1.434,1.395 c 1.039,-1.069 2.448,-1.672 3.918,-1.672 1.47,0 2.8780001,0.603 3.9170001,1.672 0,0 1.774,1.824 1.774,1.824 0.188,0.193 0.447,0.303 0.717,0.303 0.27,0 0.529,-0.11 0.717,-0.303 l 1.782,-1.833 c 1.039,-1.068 2.447,-1.671 3.917,-1.671 1.47,0 2.878,0.603 3.918,1.671 0.003,0.004 0.006,0.007 0.01,0.011 1.039,1.069 1.626,2.533 1.626,4.059 0,1.526 -0.587,2.9910002 -1.636,4.0700002 0,0 -7.874,8.114 -9.617,9.907 -0.188,0.193 -0.443,0.304 -0.709,0.304 -0.266,0 -0.521,-0.111 -0.709,-0.304 L 3.6359999,11.819 c -1.049,-1.079 -1.636,-2.5440002 -1.636,-4.0700002 0,-1.526 0.587,-2.99 1.636,-4.069"
       id="path1"
       style="fill:url(#linearGradient7);fill-opacity:1" /><path
       d="m 12.966,11.022 h -1.997 c -0.552,0 -1.0000001,0.448 -1.0000001,1 0,0.552 0.4480001,1 1.0000001,1 h 1.997 v 1.997 c 0,0.552 0.448,1 1,1 0.552,0 1,-0.448 1,-1 v -1.997 h 1.997 c 0.552,0 1,-0.448 1,-1 0,-0.552 -0.448,-1 -1,-1 H 14.966 V 9.0249998 c 0,-0.552 -0.448,-1 -1,-1 -0.552,0 -1,0.448 -1,1 z"
       id="path2"
       style="fill:url(#linearGradient7);fill-opacity:1" /></g></svg>
